<?xml version="1.0" encoding="UTF-8"?><svg id="Layer_2" xmlns="http://www.w3.org/2000/svg" viewBox="0 0 1719.85 585.11"><defs><style>.cls-1{fill:#fff;}.cls-1,.cls-2{stroke-width:0px;}.cls-2{fill:#93c5fd;}</style></defs><g id="Layer_1-2"><path class="cls-2" d="m12.68,92.46C5.23,96.02-.46,105.67.03,113.9l17.79,301.41L205.62.19,12.68,92.46Z"/><path class="cls-2" d="m526.15,92.46L332.8,0l187.48,414.13,18.48-300.23c.51-8.23-5.17-17.88-12.61-21.44Z"/><path class="cls-2" d="m382.22,433.76h-224.66l-28.68,71.48-.54,1.52,128.24,75.21c7.12,4.17,18.77,4.18,25.89.02l129.11-75.52-29.36-72.71Z"/><path class="cls-1" d="m207.58,500.33c-9.94,0-18-8.06-18-18v-243.34c0-9.94,8.06-18,18-18s18,8.06,18,18v243.34c0,9.94-8.06,18-18,18Z"/><path class="cls-1" d="m332.8,500.33c-9.94,0-18-8.06-18-18v-243.34c0-9.94,8.06-18,18-18s18,8.06,18,18v243.34c0,9.94-8.06,18-18,18Z"/><path class="cls-1" d="m269.96,533c-9.94,0-18-8.06-18-18V238.99c0-9.94,8.06-18,18-18s18,8.06,18,18v276.01c0,9.94-8.06,18-18,18Z"/><path class="cls-1" d="m360.34,72.9c-26.32,0-49.78,16.71-58.37,41.58-3.25,9.4,1.74,19.65,11.13,22.89,9.4,3.25,19.65-1.74,22.89-11.13,3.58-10.37,13.37-17.33,24.35-17.33,14.2,0,25.75,11.55,25.75,25.75s-11.55,25.75-25.75,25.75h-179.96c-14.2,0-25.75-11.55-25.75-25.75s11.55-25.75,25.75-25.75c10.98,0,20.76,6.97,24.35,17.33,3.25,9.4,13.5,14.38,22.89,11.13,9.4-3.25,14.38-13.5,11.13-22.89-8.59-24.87-32.05-41.57-58.37-41.57-2.87,0-5.69.21-8.46.59l-43.05,95.16c11.06,16.7,30.02,27.74,51.51,27.74h179.96c34.05,0,61.75-27.7,61.75-61.75s-27.7-61.75-61.75-61.75Z"/><path class="cls-1" d="m779.14,64.09l-76.6,216.56h37.03l16.52-47.06h91.1l16.13,47.06h37.35l-75.65-216.56h-45.9Zm-10.98,135.15l34.04-96.94,33.23,96.94h-67.27Z"/><path class="cls-1" d="m1045.97,142.16c-3.17-6.25-7.91-11.18-14.24-14.79-6.33-3.6-14.99-5.41-25.96-5.41-8.44,0-16.62,1.33-24.53,3.98-7.91,2.65-15.35,6.36-22.31,11.13-3.74,2.56-7.32,5.39-10.75,8.47l-5.39-20.08h-27.54v155.18h36.72v-102.12c2.16-2.53,4.58-4.91,7.28-7.11,5.06-4.13,10.71-7.42,16.93-9.86,6.22-2.44,12.29-3.66,18.2-3.66,6.33,0,11.66,1.75,15.98,5.25,4.32,3.5,6.49,10.44,6.49,20.83v96.67h36.72v-93.49c0-8.27-.47-16.27-1.42-24.01-.95-7.74-3.01-14.73-6.17-20.99Z"/><path class="cls-1" d="m1190.68,142.11c-3.82-4.16-8.16-7.75-13.03-10.76-10.13-6.25-21.84-9.38-35.13-9.38-14.14,0-26.64,3.18-37.51,9.54-10.87,6.36-19.31,15.1-25.32,26.23-6.01,11.13-9.02,24.22-9.02,39.27s3.06,27.88,9.18,39.11c6.12,11.24,14.56,19.93,25.32,26.08,10.76,6.15,23.21,9.22,37.35,9.22s25.27-3.02,35.29-9.06c3-1.81,5.79-3.85,8.39-6.12v10.73c0,15.26-3.54,26.6-10.6,34.03-7.07,7.42-16.41,11.13-28.01,11.13-9.29,0-16.88-2.12-22.79-6.36-5.91-4.24-11.5-10.71-16.78-19.4l-28.17,14.63,2.53,4.77c4.85,9.33,10.65,16.8,17.41,22.42,6.75,5.62,14.19,9.64,22.31,12.08,8.12,2.44,16.51,3.66,25.16,3.66,14.98,0,28.12-3.13,39.41-9.38,11.29-6.26,20.15-15.64,26.59-28.14,6.43-12.51,9.65-27.87,9.65-46.11V125.47h-27.85l-4.38,16.64Zm-13.67,85.6c-7.39,7.95-16.99,11.92-28.8,11.92s-21.47-3.98-28.96-11.92c-7.49-7.95-11.24-18.18-11.24-30.69s3.74-23.37,11.24-31.32c7.49-7.95,17.14-11.92,28.96-11.92s21.42,3.97,28.8,11.92c7.38,7.95,11.08,18.29,11.08,31s-3.69,23.06-11.08,31.01Z"/><path class="cls-1" d="m1351.42,227.62c-2.08,2.42-4.45,4.73-7.12,6.92-5.17,4.24-10.76,7.53-16.78,9.86-6.01,2.34-12.08,3.5-18.2,3.5s-11.45-1.75-15.98-5.25c-4.54-3.5-6.81-10.33-6.81-20.51v-96.67h-36.72v93.17c0,8.48.58,16.65,1.74,24.49,1.16,7.85,3.43,14.84,6.8,20.99,3.37,6.15,8.49,11.03,15.35,14.63,6.86,3.6,16.09,5.41,27.7,5.41,7.8,0,15.4-1.33,22.79-3.98,7.38-2.65,14.45-6.41,21.21-11.29,3.5-2.53,6.8-5.26,9.9-8.18l5.29,19.95h27.54V125.47h-36.72v102.16Z"/><path class="cls-1" d="m1452.71,230.73V64.09h-36.08v179.67c0,8.7,1.47,15.85,4.43,21.47,2.95,5.62,6.96,9.86,12.03,12.72,5.06,2.86,10.65,4.29,16.78,4.29,3.37,0,6.7-.21,9.97-.64,3.27-.43,6.17-1.06,8.71-1.91v-31.48c-4.22,0-7.91-1.16-11.08-3.5-3.17-2.33-4.75-7-4.75-13.99Z"/><path class="cls-1" d="m1579.79,129.44c-8.97-4.98-20.31-7.47-34.03-7.47-9.71,0-19.47,1.17-29.28,3.5-9.81,2.34-19.15,5.72-28.01,10.18l11.08,27.35c7.6-3.6,14.98-6.09,22.16-7.47,7.17-1.38,13.71-2.07,19.62-2.07,10.34,0,17.67,2.54,22,7.63,4.32,5.09,6.49,10.81,6.49,17.17v11.5c-.16-.12-.31-.25-.48-.37-9.18-6.78-21.26-10.18-36.24-10.18-11.39,0-21.42,2.28-30.07,6.84-8.65,4.56-15.35,10.76-20.1,18.6-4.75,7.85-7.12,17.07-7.12,27.67s2.32,20.14,6.96,27.98c4.64,7.85,11.24,13.94,19.78,18.29,8.55,4.34,18.72,6.52,30.54,6.52,13.93,0,25.69-3.29,35.29-9.86,2.47-1.69,4.74-3.59,6.81-5.69l3.16,11.1h28.17v-101.76c0-11.02-2.22-20.77-6.65-29.26-4.43-8.48-11.13-15.21-20.1-20.19Zm-17.73,119.41c-5.17,4.03-11.98,6.04-20.42,6.04s-15.25-2.01-20.42-6.04c-5.17-4.02-7.75-9.54-7.75-16.54,0-7.42,2.58-13.09,7.75-17.01,5.17-3.92,11.97-5.88,20.42-5.88s15.24,1.96,20.42,5.88c5.17,3.93,7.75,9.59,7.75,17.01,0,7-2.59,12.51-7.75,16.54Z"/><path class="cls-1" d="m1713.36,122.61c-2.85-.42-5.86-.64-9.02-.64-6.54,0-12.93,1.59-19.15,4.77-6.23,3.18-11.66,7-16.3,11.45-1.55,1.49-2.95,2.92-4.22,4.31l-3.7-17.03h-27.54v155.18h36.72v-108.46c2.33-2.99,5.07-5.48,8.23-7.45,6.96-4.34,17.41-6.52,31.34-6.52h10.13v-33.39c-1.48-1.06-3.64-1.8-6.49-2.23Z"/><polygon class="cls-2" points="803.72 457.42 850.18 457.42 850.18 430.97 803.72 430.97 803.72 408.17 852.79 408.17 852.79 381.73 803.72 381.73 800.24 381.73 772.4 381.73 772.4 508.75 800.24 508.75 803.72 508.75 853.83 508.75 853.83 482.3 803.72 482.3 803.72 457.42"/><polygon class="cls-2" points="1001.73 381.73 967.28 381.73 946.23 418.44 941.7 418.44 919.95 381.73 884.46 381.73 922.39 442.35 880.98 508.75 915.43 508.75 939.96 466.81 944.49 466.81 970.41 508.75 1005.91 508.75 963.56 443.35 1001.73 381.73"/><path class="cls-2" d="m1114.4,386.16c-7.95-3.65-17.37-5.48-28.28-5.48h-48.89v128.06h32.37v-33.76h16.53c10.9,0,20.33-1.85,28.28-5.57,7.94-3.71,14.06-8.99,18.36-15.83,4.29-6.84,6.44-14.96,6.44-24.36v-2.78c0-9.51-2.15-17.69-6.44-24.53-4.29-6.84-10.41-12.09-18.36-15.75Zm-10.35,51.94c-1.62,2.9-3.89,5.13-6.79,6.7-2.9,1.57-6.32,2.35-10.27,2.35h-17.4v-38.63h17.4c3.94,0,7.37.76,10.27,2.26,2.9,1.51,5.16,3.71,6.79,6.61,1.62,2.9,2.44,6.38,2.44,10.44s-.81,7.37-2.44,10.27Z"/><polygon class="cls-2" points="1203.57 457.42 1250.03 457.42 1250.03 430.97 1203.57 430.97 1203.57 408.17 1252.64 408.17 1252.64 381.73 1203.57 381.73 1200.09 381.73 1172.25 381.73 1172.25 508.75 1200.09 508.75 1203.57 508.75 1253.68 508.75 1253.68 482.3 1203.57 482.3 1203.57 457.42"/><path class="cls-2" d="m1392.27,450.72c4.35-6.32,6.52-14.24,6.52-23.75v-2.78c0-9.51-2.15-17.49-6.44-23.92-4.29-6.44-10.44-11.31-18.44-14.62-8-3.31-17.52-4.96-28.54-4.96h-52.72v128.06h32.36v-38.98h18.42l25.77,38.98h37.24l-31.1-44.43c7.2-3.17,12.86-7.69,16.92-13.6Zm-67.25-42.89h22.27c3.83,0,7.13.76,9.92,2.26,2.79,1.51,4.96,3.65,6.53,6.44s2.35,6.09,2.35,9.92-.78,6.96-2.35,9.74c-1.57,2.78-3.74,4.93-6.53,6.44-2.78,1.51-6.09,2.26-9.92,2.26h-22.27v-37.06Z"/><polygon class="cls-2" points="1425.59 409.91 1460.4 409.91 1460.4 508.75 1492.76 508.75 1492.76 409.91 1527.56 409.91 1527.56 381.73 1425.59 381.73 1425.59 409.91"/><path class="cls-2" d="m1650.23,450.46c-4.18-5.68-9.92-10.18-17.23-13.49-7.31-3.31-15.72-5.36-25.23-6.18l-8.18-.7c-5.45-.46-9.28-1.85-11.48-4.18-2.21-2.32-3.3-5.1-3.3-8.35,0-2.44.61-4.64,1.83-6.61,1.22-1.97,3.02-3.51,5.39-4.61,2.38-1.1,5.31-1.65,8.79-1.65,3.71,0,6.87.67,9.48,2,2.61,1.33,4.61,3.16,6,5.48,1.39,2.32,2.09,4.87,2.09,7.66h31.32c0-8.35-1.91-15.69-5.74-22.01-3.83-6.32-9.37-11.22-16.62-14.7-7.25-3.48-16.1-5.22-26.54-5.22-9.63,0-17.98,1.57-25.06,4.7-7.08,3.13-12.56,7.66-16.44,13.57-3.89,5.92-5.83,13.05-5.83,21.4,0,11.72,3.88,21.11,11.66,28.19,7.77,7.08,18.21,11.2,31.32,12.35l8.18.7c7.42.58,12.7,1.89,15.83,3.92,3.13,2.03,4.7,4.9,4.7,8.61,0,2.9-.84,5.39-2.52,7.48-1.68,2.09-4.12,3.71-7.31,4.87-3.19,1.16-7.05,1.74-11.57,1.74-5.22,0-9.51-.7-12.88-2.09-3.37-1.39-5.89-3.33-7.57-5.83-1.68-2.49-2.52-5.25-2.52-8.26h-31.32c0,8.35,2.06,15.75,6.18,22.18,4.12,6.44,10.21,11.51,18.27,15.23,8.06,3.71,18.01,5.57,29.84,5.57,11.02,0,20.45-1.68,28.28-5.05,7.83-3.36,13.86-8.12,18.1-14.27,4.23-6.15,6.35-13.34,6.35-21.58s-2.09-15.2-6.26-20.88Z"/></g></svg>