<?xml version="1.0" encoding="UTF-8"?>
<svg id="Layer_2" xmlns="http://www.w3.org/2000/svg" viewBox="0 0 738.98 268">
  <defs>
    <style>.cls-1 {
      fill: #fff;
      stroke-width: 0px;
    }
    </style>
  </defs>
  <g id="Layer_1-2">
    <path class="cls-1"
          d="m231.77,200c-14.08,25.94-34.79,44.56-62,55.89-17.35,7.23-35.52,10.07-54.23,8.91-55.97-3.47-101.36-43.47-112.69-96.19C-11.61,101.35,30.59,39.67,92.14,23.83c14.35-3.69,28.91-4.97,43.6-3.27,37.71,4.35,67.47,22.21,89.34,53.23.43.61.82,1.25,1.2,1.9.08.13.07.32.13.65-10.94-1.32-21.57-.26-31.81,3.81-10.26,4.08-18.87,10.45-25.96,19.1-14.19-13.98-31.05-20.68-50.79-19.08-17.42,1.41-31.89,9.03-43.13,22.44-21.36,25.49-18.88,63.06,5.73,85.74,13.37,12.32,29.36,17.81,47.44,16.46,18.01-1.34,32.71-9.42,44.38-23.32.73.69,1.36,1.3,2.02,1.91,13.6,12.62,29.64,18.37,48.17,17.16,2.92-.19,5.78-.71,8.65-1.19.54-.11.75.11.65.64Z" />
    <path class="cls-1"
          d="m644.2,161.68c3.72,1.36,7.21,2.47,10.84,3,3.63.53,7.27,1.01,10.94.36.57-.1,1.16-.17,1.7-.37,3.12-1.12,3.82-4.19,1.51-6.53-.77-.78-1.71-1.31-2.67-1.82-1.85-.99-3.83-1.61-5.79-2.31-3.62-1.3-7.09-2.87-10.23-5.13-7-5.04-8.85-12.33-6.82-19.85,1.18-4.35,4.11-7.35,7.94-9.54,4.08-2.33,8.56-3.18,13.19-3.31,6.21-.17,12.27.84,18.22,2.57,1.76.51,1.75.56,1.34,2.41-.74,3.33-1.52,6.65-2.21,9.99-.22,1.09-.58,1.3-1.68.95-4.54-1.47-9.19-2.36-13.99-2.18-1.6.06-3.16.27-4.6,1-2.47,1.25-2.98,3.99-1.12,6.05,1.08,1.2,2.5,1.92,3.98,2.52,2.77,1.13,5.55,2.24,8.33,3.36,2.48,1,4.85,2.2,7.09,3.66,5.51,3.6,7.57,8.91,7.25,15.23-.33,6.62-3.44,11.52-9.54,14.39-3.13,1.47-6.44,2.31-9.85,2.59-8.1.68-16.16.46-23.94-2.26-3.08-1.07-2.87-.39-2.22-3.75.69-3.58,1.5-7.14,2.32-11.02Z" />
    <path class="cls-1"
          d="m736.68,162.85c.78,4.21,1.53,8.28,2.28,12.35.18.96-.59,1.04-1.2,1.27-3.28,1.26-6.69,2.05-10.18,2.34-4.48.37-8.98.43-13.4-.76-7.78-2.09-12.29-7.27-13.96-15.01-.7-3.26-.89-6.6-.9-9.93-.03-15.82-.01-31.64-.01-47.46,0-2.42.01-2.4,2.33-2.77,4.76-.76,9.52-1.54,14.25-2.3.65.56.41,1.27.41,1.9.02,4.58,0,9.16.02,13.74,0,1.74.04,1.77,1.79,1.78,5.5.02,10.99,0,16.49.01,2.03,0,2.05.02,2.06,2.02.01,3.5-.06,7,.03,10.49.04,1.36-.45,1.69-1.72,1.68-5.49-.05-10.99-.03-16.49-.02-2.15,0-2.17.02-2.17,2.21,0,6.16-.02,12.32,0,18.48,0,2.08.2,4.16.8,6.17,1.14,3.79,3.46,5.63,7.42,5.9,3.2.22,6.3-.34,9.35-1.23.86-.25,1.71-.52,2.77-.85Z" />
    <path class="cls-1"
          d="m433.48,162.51c.71,4.01,1.36,7.94,2.12,11.86.26,1.36-.24,1.92-1.48,2.32-9.21,2.91-18.52,3.44-27.78.61-8.07-2.47-13.52-8.07-16.47-15.91-3.02-8.04-3.26-16.27-.76-24.51,2.94-9.7,11.18-18.95,25.53-20.39,6.29-.63,12.47.17,18.42,2.41,1.71.64,1.71.65,1.25,2.46-.89,3.46-1.81,6.92-2.66,10.39-.26,1.07-.65,1.3-1.73.91-3.39-1.21-6.9-1.84-10.52-1.8-7.54.09-12.16,3.7-13.95,11.06-1.08,4.47-.91,8.95.35,13.34,1.63,5.68,5.5,8.65,11.74,9.11,4.86.36,9.65-.06,14.3-1.64.47-.16.9-.45,1.64-.23Z" />
    <path class="cls-1"
          d="m592.73,90.06c.5.99.28,1.92.28,2.82.01,19.81,0,39.62.01,59.43,0,1.58.02,3.16.09,4.74.21,4.41,1.94,6.5,6.2,7.54.64.16,1.3.29,1.96.33.79.05,1,.45.88,1.14-.68,4.02-1.37,8.03-2.03,12.05-.1.62-.43.88-.99.87-5.96-.1-11.83-.67-16.91-4.24-4.16-2.93-5.51-7.33-6.02-12.1-.13-1.24-.12-2.49-.12-3.74,0-21.23,0-42.45,0-63.68,0-.5.02-1,0-1.5-.04-.85.4-1.14,1.19-1.25,3.29-.49,6.57-1.03,9.86-1.54,1.87-.29,3.75-.58,5.6-.86Z" />
    <path class="cls-1"
          d="m611.92,148.04c0-9.08,0-18.16,0-27.25,0-.42,0-.83,0-1.25.03-2.05.03-2.07,2.02-2.08,3.5-.01,7,0,10.5,0,1,0,2,.05,3-.01,1.03-.07,1.59.24,1.5,1.37-.04.5,0,1,0,1.5,0,18.66,0,37.33,0,55.99,0,3.02.31,2.68-2.64,2.69-4,.01-8,0-12,0-2.6,0-2.36.19-2.37-2.47,0-9.5,0-19,0-28.5Z" />
    <path class="cls-1"
          d="m620.32,110.33c-5.8-.02-10.16-4.39-10.11-10.11.05-5.7,4.48-9.95,10.31-9.88,5.63.07,10.03,4.43,10.04,9.96.01,5.62-4.51,10.05-10.25,10.03Z" />
    <path class="cls-1"
          d="m118.86,111.96c3.9-.03,7.19,3.14,7.27,7.04.09,4.04-3.12,7.34-7.16,7.37-4.04.03-7.32-3.24-7.29-7.26.03-3.89,3.28-7.12,7.18-7.15Z" />
    <path class="cls-1"
          d="m139.53,165.46c4.04.06,7.23,3.39,7.11,7.42-.12,3.89-3.44,7.05-7.33,6.99-4.01-.07-7.22-3.43-7.1-7.45.11-3.92,3.36-7.01,7.32-6.96Z" />
    <path class="cls-1"
          d="m277.96,109.87c-3.93.04-7.19-3.1-7.29-7.01-.1-4.02,3.13-7.36,7.16-7.4,3.91-.03,7.19,3.13,7.29,7.02.1,4.01-3.14,7.35-7.16,7.39Z" />
    <path class="cls-1"
          d="m249.7,251.23c-.03,3.93-3.21,7.1-7.16,7.14-4,.04-7.34-3.29-7.29-7.28.04-3.9,3.27-7.11,7.18-7.14,4.04-.03,7.3,3.24,7.27,7.27Z" />
    <path class="cls-1"
          d="m291.45,62.96c3.92.04,7.15,3.25,7.18,7.14.03,3.96-3.35,7.31-7.33,7.27-4.02-.04-7.22-3.38-7.12-7.42.09-3.93,3.31-7.03,7.27-6.99Z" />
    <path class="cls-1"
          d="m273.67,188.78c-.04,4.03-3.37,7.23-7.41,7.12-3.93-.11-7.08-3.36-7.04-7.27.04-4,3.43-7.25,7.43-7.13,3.94.11,7.06,3.35,7.02,7.28Z" />
    <path class="cls-1"
          d="m237.69,48.37c.42.26.86.49,1.27.78,2.86,1.99,3.94,5.37,2.73,8.54-1.16,3.04-4.31,4.99-7.48,4.63-3.34-.38-6.01-2.98-6.45-6.3-.44-3.25,1.52-6.42,4.74-7.63.54-.2,1.11-.34,1.67-.5,1.3-.74,2.49-.71,3.52.48Z" />
    <path class="cls-1"
          d="m332.38,130.41c-3.9-.05-7.15-3.29-7.16-7.16-.02-3.97,3.35-7.29,7.34-7.25,4.04.05,7.2,3.35,7.11,7.42-.09,3.91-3.34,7.03-7.29,6.99Z" />
    <path class="cls-1"
          d="m204.79,16.42c4.04-.04,7.36,3.22,7.33,7.22-.02,3.88-3.25,7.12-7.15,7.19-3.99.07-7.32-3.23-7.3-7.26.02-3.93,3.18-7.11,7.12-7.16Z" />
    <path class="cls-1"
          d="m143.59,115.9c.08-.14.12-.29.12-.45.25-.3.06-.82.51-1.01,1.89-2.51,4.31-3.91,7.52-3.34,3.87.69,6.35,4.12,5.91,7.98-.4,3.56-3.55,6.31-7.2,6.29-3.75-.02-6.8-2.81-7.17-6.61-.06-.58-.02-1.16-.02-1.74.17-.36.15-.77.33-1.12Z" />
    <path class="cls-1"
          d="m290.75,196.47c1.21-.74,2.46-1.37,3.91-1.5,4.2-.38,7.9,2.95,7.93,7.13.03,4.07-3.54,7.48-7.59,7.26-4.25-.23-7.35-3.95-6.8-8.19.1-.73.35-1.45.54-2.17.13-1.27.66-2.23,2.01-2.53Z" />
    <path class="cls-1"
          d="m333.44,131.46c3.92-.03,7.17,3.12,7.26,7.04.09,4.05-3.1,7.34-7.15,7.37-4.02.03-7.35-3.28-7.3-7.26.05-3.88,3.3-7.12,7.19-7.15Z" />
    <path class="cls-1"
          d="m295.48,251.91c-3.97.06-7.21-3.02-7.31-6.95-.11-4.05,3.06-7.39,7.09-7.46,3.95-.07,7.37,3.29,7.36,7.24,0,3.9-3.21,7.11-7.14,7.17Z" />
    <path class="cls-1"
          d="m273.23,33.7c-.02,3.94-3.18,7.12-7.12,7.17-3.97.04-7.36-3.32-7.33-7.26.03-3.88,3.28-7.11,7.18-7.15,4.05-.04,7.28,3.18,7.26,7.25Z" />
    <path class="cls-1"
          d="m245.61,65.51c-2.24-1.94-3.37-4.33-2.72-7.31.81-3.7,4.37-6.18,7.97-5.66,3.77.54,6.45,3.73,6.3,7.49-.15,3.74-3.09,6.64-6.94,6.85-.5.03-1,0-1.5,0-1.04-.44-2.49.02-3.11-1.37Z" />
    <path class="cls-1"
          d="m271.82,233.38c4.06-.03,7.34,3.2,7.31,7.22-.03,3.9-3.23,7.11-7.15,7.17-3.99.06-7.33-3.26-7.3-7.26.02-3.93,3.19-7.09,7.14-7.13Z" />
    <path class="cls-1"
          d="m145.17,164.12c.05-3.94,3.24-7.1,7.17-7.12,3.97-.01,7.33,3.37,7.27,7.32-.06,3.9-3.3,7.08-7.22,7.09-4.06,0-7.26-3.23-7.22-7.3Z" />
    <path class="cls-1"
          d="m258.59,28.01c.06,3.98-3.28,7.34-7.26,7.32-3.93-.02-7.14-3.2-7.19-7.11-.05-4.05,3.18-7.31,7.23-7.3,3.93,0,7.16,3.19,7.21,7.09Z" />
    <path class="cls-1"
          d="m234.65,46.98c-2.78-1.46-4.52-3.6-4.5-6.87.02-3.62,2.77-6.63,6.43-7.08,3.44-.42,6.75,1.86,7.72,5.31.95,3.39-.75,7.03-4,8.44-.68.3-1.42.46-2.13.68-1.28.64-2.42.24-3.52-.47Z" />
    <path class="cls-1"
          d="m298.64,40.46c.06-3.93,3.26-7.05,7.22-7.04,4.05.01,7.32,3.32,7.23,7.31-.09,3.89-3.39,7.11-7.25,7.1-4.02-.02-7.25-3.33-7.19-7.37Z" />
    <path class="cls-1"
          d="m239.97,197.57c4,.07,7.27,3.47,7.13,7.44-.14,3.91-3.4,6.99-7.35,6.94-4.06-.05-7.18-3.32-7.08-7.41.1-3.92,3.37-7.04,7.3-6.98Z" />
    <path class="cls-1"
          d="m252.2,219c.04,4.03-3.23,7.35-7.23,7.33-3.87-.01-7.16-3.27-7.22-7.13-.06-4.01,3.21-7.29,7.26-7.28,3.96.01,7.14,3.14,7.18,7.08Z" />
    <path class="cls-1"
          d="m317.17,92.86c.1-3.93,3.32-6.99,7.3-6.94,4.03.05,7.29,3.44,7.13,7.41-.15,3.88-3.5,7.07-7.35,7-4.03-.08-7.18-3.4-7.08-7.47Z" />
    <path class="cls-1"
          d="m276.3,169.5c3.88-.07,7.21,3.11,7.32,6.99.12,4.04-3.07,7.36-7.11,7.42-3.95.05-7.21-3.03-7.33-6.95-.13-3.99,3.11-7.38,7.12-7.46Z" />
    <path class="cls-1"
          d="m204.17,253.67c.03-3.94,3.19-7.12,7.13-7.17,3.96-.05,7.34,3.33,7.31,7.29-.03,4.01-3.38,7.21-7.43,7.12-3.96-.09-7.03-3.27-7.01-7.24Z" />
    <path class="cls-1"
          d="m110.53,150.29c-.02-4.06,3.24-7.34,7.23-7.28,3.9.06,7.1,3.28,7.12,7.19.02,4.06-3.2,7.25-7.28,7.22-3.99-.03-7.06-3.12-7.07-7.13Z" />
    <path class="cls-1"
          d="m212.5,231.38c3.94.05,7.12,3.25,7.13,7.17,0,3.97-3.39,7.29-7.37,7.22-3.93-.07-7.09-3.28-7.08-7.21,0-4.06,3.24-7.23,7.32-7.18Z" />
    <path class="cls-1"
          d="m311.79,193.01c2.27-1.85,4.76-2.68,7.65-1.64,3.56,1.28,5.54,5.04,4.54,8.64-1.03,3.71-4.85,6.01-8.53,5.13-3.85-.92-6.23-4.42-5.58-8.23.08-.49.21-.97.31-1.46.45-.87.16-2.23,1.6-2.44Z" />
    <path class="cls-1"
          d="m226.74,53.55c.02,4.05-3.26,7.34-7.26,7.28-3.9-.06-7.13-3.29-7.16-7.18-.03-4.01,3.26-7.27,7.31-7.24,3.96.04,7.09,3.18,7.12,7.14Z" />
    <path class="cls-1"
          d="m259.33,219.95c-3.96-.02-7.13-3.15-7.16-7.09-.03-4.06,3.21-7.33,7.24-7.3,4,.03,7.3,3.41,7.21,7.38-.1,3.91-3.34,7.03-7.28,7.01Z" />
    <path class="cls-1"
          d="m130.25,104.13c-.01,3.94-3.15,7.14-7.08,7.2-3.97.06-7.35-3.27-7.34-7.25,0-3.98,3.36-7.24,7.39-7.17,3.95.07,7.05,3.25,7.03,7.21Z" />
    <path class="cls-1"
          d="m266.63,43.57c3.99-.05,7.32,3.26,7.29,7.26-.02,3.94-3.18,7.09-7.14,7.12-3.99.04-7.16-3.01-7.25-6.97-.09-4.07,3.06-7.36,7.09-7.42Z" />
    <path class="cls-1"
          d="m120.84,158.33c3.98.02,7.14,3.13,7.18,7.07.04,3.98-3.3,7.28-7.31,7.24-3.98-.04-7.09-3.15-7.11-7.12-.03-4.12,3.09-7.21,7.25-7.19Z" />
    <path class="cls-1"
          d="m134.42,164.96c-3.96-.05-7.1-3.21-7.1-7.15s3.41-7.32,7.36-7.22c3.96.1,7.07,3.28,7.06,7.22,0,4.1-3.17,7.19-7.31,7.15Z" />
    <path class="cls-1"
          d="m189.57,33.5c-4,0-7.17-3.04-7.25-7-.08-3.98,3.21-7.31,7.23-7.32,4.07,0,7.24,3.21,7.2,7.3-.04,3.98-3.15,7.01-7.18,7.02Z" />
    <path class="cls-1"
          d="m279.9,33.96c3.92.07,7.12,3.29,7.13,7.19,0,3.98-3.37,7.29-7.36,7.22-4.04-.07-7.17-3.37-7.07-7.45.1-3.92,3.35-7.03,7.29-6.96Z" />
    <path class="cls-1"
          d="m310.03,79.08c0-4.11,3.17-7.22,7.28-7.16,3.96.06,7.08,3.22,7.07,7.17,0,4.01-3.36,7.32-7.33,7.23-3.93-.09-7.03-3.28-7.03-7.24Z" />
    <path class="cls-1"
          d="m279.63,88.47c.03-4.09,3.22-7.17,7.36-7.1,3.92.07,7.13,3.33,7.09,7.21-.04,3.85-3.33,7.13-7.2,7.18-3.99.05-7.27-3.24-7.25-7.28Z" />
    <path class="cls-1"
          d="m235.21,238.05c.03,4.03-3.27,7.34-7.26,7.28-3.88-.05-7.16-3.32-7.19-7.17-.04-3.97,3.3-7.27,7.33-7.24,3.95.03,7.1,3.18,7.12,7.13Z" />
    <path class="cls-1"
          d="m321.65,110.47c.03,3.98-3.33,7.34-7.29,7.29-3.91-.05-7.12-3.27-7.15-7.17-.03-3.96,3.07-7.14,7.03-7.21,4.11-.07,7.38,3.05,7.41,7.09Z" />
    <path class="cls-1"
          d="m329.27,162.34c4.09,0,7.32,3.23,7.25,7.25-.07,3.93-3.26,7.05-7.22,7.07-4.06.02-7.26-3.21-7.2-7.29.05-3.98,3.16-7.04,7.17-7.04Z" />
    <path class="cls-1"
          d="m268.35,97.46c-3.98-.03-7.11-3.14-7.14-7.1-.03-3.99,3.32-7.33,7.29-7.28,3.9.05,7.13,3.3,7.16,7.18.03,4.03-3.22,7.23-7.31,7.2Z" />
    <path class="cls-1"
          d="m195.69,258.99c-4-.04-7.09-3.14-7.1-7.12-.01-4.08,3.22-7.28,7.27-7.21,3.95.07,7.14,3.25,7.15,7.14.01,4.01-3.27,7.23-7.33,7.19Z" />
    <path class="cls-1"
          d="m311.37,182.49c-4.12.04-7.28-3.08-7.27-7.19,0-3.99,3.08-7.09,7.08-7.14,4.04-.05,7.37,3.21,7.35,7.2-.03,3.92-3.2,7.09-7.15,7.13Z" />
    <path class="cls-1"
          d="m247.19,67.39c1.62,1.56,2.63,3.36,2.58,5.71-.08,3.98-3.16,7.13-7.11,7.17-3.88.03-7.18-3.15-7.3-7.05-.12-3.89,3.03-7.21,6.96-7.32.74-.02,1.49.08,2.24.12.98.27,2.14.19,2.63,1.38Z" />
    <path class="cls-1"
          d="m152.63,178.1c-.05-4.14,3.03-7.25,7.17-7.26,3.97,0,7.17,3.08,7.27,7,.1,3.94-3.25,7.31-7.26,7.31-3.97,0-7.14-3.11-7.18-7.06Z" />
    <path class="cls-1"
          d="m231.25,7.08c.05,4.08-3.13,7.31-7.19,7.31-3.92,0-7.16-3.17-7.24-7.07C216.75,3.35,220.07,0,224.08,0c3.96,0,7.12,3.12,7.17,7.08Z" />
    <path class="cls-1"
          d="m284.39,123.99c-3.96,0-7.16-3.12-7.22-7.05-.06-4.03,3.19-7.3,7.24-7.29,3.96.01,7.16,3.15,7.21,7.06.05,4.04-3.17,7.28-7.24,7.27Z" />
    <path class="cls-1"
          d="m140.24,126.74c.04,4-3.01,7.15-6.99,7.22-4.12.08-7.39-3.03-7.44-7.06-.05-3.98,3.3-7.33,7.28-7.29,3.94.04,7.11,3.2,7.15,7.13Z" />
    <path class="cls-1"
          d="m222.63,222.22c.13-4.03,3.49-7.05,7.61-6.86,3.92.18,7.02,3.55,6.84,7.43-.19,3.93-3.46,6.97-7.41,6.88-4.08-.09-7.17-3.36-7.04-7.45Z" />
    <path class="cls-1"
          d="m279.61,52.39c4.05-.06,7.36,3.18,7.36,7.18,0,3.89-3.18,7.12-7.11,7.2-3.94.09-7.18-3.02-7.27-6.95-.09-4.14,2.97-7.37,7.02-7.43Z" />
    <path class="cls-1"
          d="m297.38,215.34c3.95.03,7.15,3.17,7.2,7.09.05,3.97-3.28,7.27-7.31,7.24-4.08-.03-7.22-3.26-7.14-7.35.08-3.95,3.25-7.01,7.25-6.98Z" />
    <path class="cls-1"
          d="m236.23,17.39c3.95.02,7.11,3.15,7.17,7.1.05,4.01-3.23,7.31-7.25,7.28-3.96-.03-7.08-3.15-7.11-7.12-.03-4.11,3.11-7.28,7.2-7.26Z" />
    <path class="cls-1"
          d="m94.59,141.66c.02-3.96,3.14-7.12,7.09-7.17,3.98-.05,7.35,3.29,7.34,7.25-.02,3.88-3.26,7.12-7.16,7.16-4.06.04-7.28-3.16-7.26-7.24Z" />
    <path class="cls-1"
          d="m302.83,124.78c4.05,0,7.34,3.29,7.26,7.27-.08,3.94-3.26,7.01-7.25,7.01-4.11,0-7.26-3.17-7.21-7.25.06-3.96,3.2-7.03,7.2-7.03Z" />
    <path class="cls-1"
          d="m141.1,149.14c-.04-3.97,3.02-7.17,6.97-7.26,4.08-.1,7.38,3.04,7.45,7.08.07,3.96-3.27,7.33-7.27,7.31-3.93-.02-7.12-3.18-7.16-7.12Z" />
    <path class="cls-1"
          d="m283.3,169.99c-3.96-.05-7.1-3.21-7.11-7.15,0-4.02,3.3-7.26,7.34-7.18,3.97.07,7.1,3.24,7.1,7.17,0,4.05-3.24,7.21-7.33,7.16Z" />
    <path class="cls-1"
          d="m317.03,184.23c0-4.05,3.29-7.32,7.28-7.23,3.91.08,7.09,3.31,7.1,7.22,0,4.03-3.28,7.25-7.33,7.2-3.94-.05-7.05-3.22-7.05-7.18Z" />
    <path class="cls-1"
          d="m112.42,179.84c4.08-.03,7.31,3.17,7.28,7.21-.03,3.94-3.17,7.08-7.14,7.11-4.05.04-7.34-3.22-7.3-7.23.03-3.92,3.21-7.07,7.17-7.1Z" />
    <path class="cls-1"
          d="m221.95,31.28c4.01-.05,7.19,2.96,7.29,6.91.11,4.12-2.97,7.32-7.07,7.37-4.1.05-7.35-3.11-7.35-7.15,0-3.91,3.17-7.08,7.13-7.14Z" />
    <path class="cls-1"
          d="m249.11,80.01c.11-3.91,3.4-7.04,7.32-6.94,4.02.1,7.27,3.51,7.09,7.47-.17,3.94-3.41,6.97-7.37,6.91-4.05-.06-7.16-3.35-7.05-7.44Z" />
    <path class="cls-1"
          d="m136.68,93.42c1.74-2.09,3.86-3.32,6.69-3.11,3.79.28,6.83,3.57,6.7,7.32-.14,3.82-3.25,6.86-7.09,6.93-3.97.07-7.14-2.75-7.34-6.57-.04-.82.05-1.66.09-2.48.17-.76-.09-1.72.95-2.08Z" />
    <path class="cls-1"
          d="m346.4,101.77c3.98.03,7.14,3.14,7.18,7.07.04,3.99-3.26,7.24-7.31,7.21-4.09-.03-7.24-3.26-7.14-7.33.09-3.95,3.26-6.98,7.27-6.95Z" />
    <path class="cls-1"
          d="m112.25,110.66c.04,4.11-3.11,7.3-7.18,7.28-3.94-.02-7.16-3.16-7.23-7.07-.08-3.94,3.28-7.31,7.27-7.31,3.96,0,7.1,3.13,7.14,7.1Z" />
    <path class="cls-1"
          d="m93.81,124.59c0,3.98-3.09,7.11-7.06,7.17-4.02.06-7.32-3.2-7.31-7.23.01-4.03,3.29-7.22,7.36-7.15,3.97.07,7.02,3.2,7.01,7.2Z" />
    <path class="cls-1"
          d="m265.85,268c-4.06.02-7.16-2.96-7.22-6.94-.07-4.13,3.02-7.3,7.13-7.32,4.03-.03,7.38,3.28,7.31,7.23-.06,3.91-3.25,7.02-7.22,7.04Z" />
    <path class="cls-1"
          d="m227.09,246.38c3.98.04,7.11,3.17,7.11,7.12,0,4.02-3.32,7.33-7.31,7.25-3.9-.07-7.12-3.33-7.14-7.2-.02-4.03,3.24-7.21,7.33-7.17Z" />
    <path class="cls-1"
          d="m287.5,124.84c3.99,0,7.13,3.1,7.17,7.06.04,4.08-3.15,7.3-7.22,7.27-3.95-.03-7.16-3.17-7.23-7.07-.07-3.99,3.22-7.26,7.27-7.25Z" />
    <path class="cls-1"
          d="m251.09,230.3c-.04-4.08,3.15-7.35,7.16-7.34,3.89.01,7.16,3.21,7.25,7.1.09,3.94-3.25,7.31-7.26,7.31s-7.11-3.1-7.15-7.07Z" />
    <path class="cls-1"
          d="m271.9,230.06c-3.95-.05-7.14-3.25-7.14-7.14,0-3.98,3.32-7.2,7.39-7.14,4.1.06,7.17,3.27,7.06,7.39-.1,3.95-3.29,6.95-7.31,6.9Z" />
    <path class="cls-1"
          d="m284.64,206.27c4.1.03,7.2,3.23,7.11,7.34-.08,3.96-3.24,6.98-7.25,6.95-3.96-.03-7.13-3.16-7.17-7.09-.04-3.99,3.24-7.23,7.31-7.2Z" />
    <path class="cls-1"
          d="m96.1,157.28c0-3.95,3.13-7.13,7.07-7.21,3.98-.08,7.35,3.24,7.36,7.22,0,3.99-3.32,7.22-7.37,7.16-3.96-.05-7.06-3.2-7.05-7.18Z" />
    <path class="cls-1"
          d="m124.25,134.54c.04,4.08-3.17,7.34-7.19,7.33-3.89-.02-7.15-3.23-7.23-7.12-.08-3.96,3.25-7.3,7.27-7.29,3.98.01,7.12,3.12,7.15,7.08Z" />
    <path class="cls-1"
          d="m329.46,115c-3.98,0-7.16-3.09-7.23-7.01-.07-3.97,3.25-7.31,7.26-7.3,4.06.01,7.25,3.25,7.18,7.32-.06,3.97-3.18,7-7.21,6.99Z" />
    <path class="cls-1"
          d="m301.7,100.41c1.02,3.86-1.27,7.68-5.12,8.55-4.14.94-8.13-1.59-8.86-5.6-.72-3.98,2.02-7.88,5.93-8.44,3.33-.47,5.97.92,7.53,3.98.45.41,0,1.12.52,1.51Z" />
    <path class="cls-1"
          d="m261.25,198.3c-.04,3.96-3.19,7.07-7.16,7.08-4.02,0-7.35-3.34-7.26-7.3.08-3.89,3.35-7.09,7.24-7.11,4.02-.01,7.23,3.26,7.18,7.33Z" />
    <path class="cls-1"
          d="m206.19,31.88c4.12,0,7.19,3.15,7.13,7.3-.06,3.94-3.26,7.11-7.17,7.08-4.02-.02-7.24-3.34-7.16-7.38.08-3.98,3.2-7.02,7.21-7.01Z" />
    <path class="cls-1"
          d="m315.31,66.34c.06,4.09-3.1,7.32-7.16,7.32-3.94,0-7.14-3.12-7.23-7.06-.08-3.94,3.01-7.17,6.96-7.27,4.16-.1,7.37,2.92,7.43,7Z" />
    <path class="cls-1"
          d="m288.13,198.39c-1.52,1.08-3.17,1.75-5.09,1.68-3.7-.14-6.68-2.94-6.9-6.55-.23-3.76,2.19-7,5.71-7.62,3.82-.68,7.25,1.4,8.38,4.98.53,1.69.22,3.27-.18,4.89-.17,1.22-.84,2.07-1.92,2.63Z" />
    <path class="cls-1"
          d="m276.24,69.78c4.06-.03,7.36,3.21,7.33,7.2-.03,3.89-3.24,7.04-7.19,7.08-4.14.03-7.27-3.06-7.25-7.18.02-3.99,3.11-7.07,7.11-7.1Z" />
    <path class="cls-1"
          d="m243.46,242.5c-4.1.02-7.32-3.15-7.29-7.19.03-3.92,3.21-7.09,7.16-7.12,4.03-.04,7.34,3.25,7.29,7.24-.04,3.96-3.17,7.04-7.16,7.07Z" />
    <path class="cls-1"
          d="m132.29,135.34c4.11-.02,7.34,3.16,7.3,7.19-.04,3.92-3.23,7.09-7.16,7.13-4.04.04-7.3-3.21-7.27-7.25.03-3.96,3.15-7.05,7.14-7.07Z" />
    <path class="cls-1"
          d="m140.53,133.59c-.01-4.11,3.15-7.26,7.24-7.21,3.97.04,7.09,3.17,7.1,7.14.02,4.03-3.27,7.31-7.28,7.25-3.96-.06-7.05-3.2-7.06-7.18Z" />
    <path class="cls-1"
          d="m135.07,94.85c-1.75,1.55-3.72,2.41-6.12,2.2-3.7-.32-6.58-3.44-6.53-7.19.05-3.87,3.05-6.93,6.93-7.06,3.85-.13,7.02,2.55,7.41,6.23.16,1.52-.12,2.97-.64,4.38-.18.61-.25,1.29-1.05,1.44Z" />
    <path class="cls-1"
          d="m308.81,88.81c4.07-.02,7.35,3.21,7.31,7.2-.04,3.9-3.24,7.05-7.19,7.08-4.12.03-7.28-3.12-7.26-7.2.03-3.97,3.13-7.05,7.13-7.07Z" />
    <path class="cls-1"
          d="m285.03,179.92c.02-4.13,3.15-7.15,7.33-7.08,3.99.07,7.03,3.19,7.01,7.19-.02,3.95-3.16,7.09-7.12,7.14-4.06.05-7.24-3.15-7.22-7.25Z" />
    <path class="cls-1"
          d="m317.37,133.03c-3.94-.05-7.13-3.23-7.14-7.13-.01-4,3.26-7.17,7.36-7.13,4.11.04,7.19,3.23,7.08,7.35-.1,3.93-3.3,6.96-7.3,6.91Z" />
    <path class="cls-1"
          d="m142.82,115.44c-1.73,2.8-5.47,4.11-8.48,3.04-3.57-1.27-5.56-4.77-4.71-8.51.79-3.49,4.25-5.91,7.82-5.48,3.64.44,6.34,3.46,6.35,7.12,0,.74-.12,1.49-.18,2.23-.2.33-.04.82-.45,1.06h0c-.16.14-.28.32-.34.53Z" />
    <path class="cls-1"
          d="m272.36,211.06c-4.05.05-7.18-2.92-7.27-6.9-.09-4.18,2.91-7.33,7.03-7.39,4.09-.06,7.36,3.12,7.36,7.15,0,3.93-3.15,7.09-7.12,7.14Z" />
    <path class="cls-1"
          d="m140.62,191.48c.08.74.23,1.49.24,2.23.05,3.3-2.11,6.17-5.27,7.04-3.13.86-6.51-.53-8.16-3.35-1.61-2.75-1.1-6.49,1.18-8.74,2.3-2.27,5.96-2.73,8.74-1.06.64.38,1.19.89,1.79,1.34,1.23.41,1.28,1.52,1.49,2.53Z" />
    <path class="cls-1"
          d="m302.67,154.56c-4.1.02-7.3-3.17-7.25-7.22.05-3.98,3.16-7.04,7.16-7.06,4.12-.02,7.26,3.12,7.22,7.22-.03,3.99-3.12,7.04-7.13,7.06Z" />
    <path class="cls-1"
          d="m339.71,154.36c.01,4.11-3.14,7.24-7.25,7.19-3.95-.04-7.15-3.22-7.17-7.11-.02-4,3.25-7.2,7.34-7.17,4.03.03,7.08,3.08,7.09,7.09Z" />
    <path class="cls-1"
          d="m316.05,153.34c3.97.05,7.1,3.19,7.11,7.14,0,4.02-3.31,7.25-7.35,7.18-3.96-.07-7.1-3.24-7.09-7.17,0-4.06,3.22-7.19,7.33-7.14Z" />
    <path class="cls-1"
          d="m300.2,109.48c3.91,0,7.13,3.15,7.2,7.08.08,4.06-3.12,7.31-7.17,7.32-3.97,0-7.13-3.09-7.19-7.04-.06-4.07,3.13-7.35,7.16-7.35Z" />
    <path class="cls-1"
          d="m114.16,172.6c-.06,3.91-3.28,7.06-7.22,7.06-4.05,0-7.28-3.27-7.22-7.3.07-4.05,3.32-7.12,7.45-7.02,3.95.09,7.05,3.32,6.99,7.26Z" />
    <path class="cls-1"
          d="m110.01,103.06c-4.11.05-7.34-3.1-7.34-7.14,0-3.94,3.13-7.09,7.1-7.14,4.08-.05,7.35,3.13,7.35,7.15,0,3.91-3.16,7.08-7.12,7.13Z" />
    <path class="cls-1"
          d="m294.03,82.43c.04-4.1,3.22-7.17,7.35-7.08,3.96.08,7.05,3.27,7.02,7.22-.03,4.02-3.36,7.21-7.41,7.1-4-.11-7-3.22-6.97-7.24Z" />
    <path class="cls-1"
          d="m252.44,37.28c3.96.01,7.14,3.13,7.18,7.06.05,4.06-3.14,7.23-7.25,7.22-4.08-.01-7.28-3.25-7.2-7.29.08-3.91,3.29-7.01,7.26-7Z" />
    <path class="cls-1"
          d="m156.67,111.06c-4.02,0-7.13-3.01-7.21-6.99-.08-4.07,3.09-7.27,7.19-7.28,4.11-.01,7.22,3.13,7.17,7.26-.05,4.02-3.09,7.01-7.15,7.01Z" />
    <path class="cls-1"
          d="m287.25,140.46c4.03.05,7.2,3.35,7.09,7.41-.1,3.96-3.29,7.04-7.24,7-4.06-.04-7.15-3.28-7.07-7.39.08-3.95,3.29-7.06,7.22-7.02Z" />
    <path class="cls-1"
          d="m307.85,218.06c-4.08-.03-7.27-3.27-7.18-7.31.09-3.92,3.3-7,7.28-6.98,4.06.02,7.26,3.3,7.18,7.33-.09,3.93-3.27,6.98-7.27,6.96Z" />
    <path class="cls-1"
          d="m309.68,194.42c-1.75,1.54-3.74,2.33-6.11,2.09-4.48-.44-7.28-4.7-5.95-9.11.55-.33.08-1.07.57-1.43,2.05-3.39,5.49-4.63,8.94-3.22,3.4,1.39,5.08,4.85,4.19,8.59-.08.32-.14.65-.21.97-.14.92-.39,1.78-1.42,2.1Z" />
    <path class="cls-1"
          d="m139.73,187.33c.06-.91.02-1.81.27-2.72.82-2.93,3.01-4.93,5.93-5.33,3.17-.43,5.57.77,7.24,3.63.3.27.18.73.47,1,1.12,3.13.37,6.02-2.1,8.02-2.45,1.98-5.97,2.15-8.59.37-.61-.41-1.14-.96-1.7-1.44-1.52-.74-1.2-2.27-1.52-3.53Z" />
    <path class="cls-1"
          d="m259.46,72.48c-2.96-2.39-3.75-5.94-2-9.07,1.77-3.19,5.65-4.55,9.05-3.17,3.24,1.31,5.04,4.7,4.31,8.09-.8,3.73-3.63,5.77-7.66,5.56-.59-.5-1.42.04-2-.46h0c-.27-.31-.73-.23-1.02-.49h.02c-.18-.23-.39-.42-.7-.45Z" />
    <path class="cls-1"
          d="m139.73,187.33l1.52,3.53c-.21.21-.42.41-.64.62-.5-.84-.99-1.69-1.49-2.53.7-.35.39-1.08.6-1.62Z" />
    <path class="cls-1"
          d="m247.19,67.39c-.88-.46-1.76-.92-2.63-1.38.36-.14.82-.1,1.06-.5,1.04.46,2.07.91,3.11,1.37-.5.2-1.18-.13-1.54.51Z" />
    <path class="cls-1" d="m234.65,46.98l3.52.47c-.16.3-.32.61-.49.91-1.17-.16-2.34-.32-3.52-.48.16-.3.32-.6.48-.91Z" />
    <path class="cls-1"
          d="m288.13,198.39c.64-.88,1.28-1.75,1.92-2.63.23.24.47.47.7.71-.67.84-1.34,1.69-2.01,2.53-.2-.2-.4-.41-.61-.61Z" />
    <path class="cls-1"
          d="m309.68,194.42c.47-.7.95-1.4,1.42-2.1.23.23.46.46.69.68-.53.81-1.07,1.63-1.6,2.44-.09-.38-.08-.81-.51-1.03Z" />
    <path class="cls-1"
          d="m135.07,94.85c.22-.57.5-1.11,1.05-1.44.19,0,.37,0,.56.01-.21.74-.44,1.47-.95,2.08-.22-.22-.44-.44-.66-.65Z" />
    <path class="cls-1" d="m261.16,73.42c.69.06,1.46-.23,2,.46-.73.11-1.43.09-2-.46Z" />
    <path class="cls-1"
          d="m143.16,114.91c-.03-.43.09-.8.45-1.06.2.2.4.4.6.6.01.43-.16.77-.51,1.01-.18-.18-.36-.36-.54-.55Z" />
    <path class="cls-1" d="m301.7,100.41c-.62-.35-.51-.95-.52-1.51.5.39.57.93.52,1.51Z" />
    <path class="cls-1" d="m298.19,185.98c-.04.54.06,1.13-.57,1.43-.03-.57.09-1.07.57-1.43Z" />
    <path class="cls-1" d="m231.77,200c-.22-.21-.43-.43-.65-.64.31-.25.66-.59.98-.11.18.26.03.61-.34.75Z" />
    <path class="cls-1" d="m143.59,115.9c.09.43-.02.81-.33,1.12-.15-.45-.08-.84.33-1.12Z" />
    <path class="cls-1" d="m260.15,72.93c.42,0,.8.08,1.02.5-.43.03-.79-.09-1.02-.5Z" />
    <path class="cls-1" d="m153.64,183.91c-.39-.23-.46-.6-.47-1,.38.23.51.58.47,1Z" />
    <path class="cls-1" d="m142.82,115.44c-.04-.28.11-.43.34-.53.04.27-.07.46-.34.53Z" />
    <path class="cls-1" d="m259.46,72.48c.32.03.55.17.7.46-.33-.01-.56-.16-.7-.46Z" />
    <path class="cls-1"
          d="m499.5,140.46c-1.61-8.23-5.51-15.12-12.74-19.78-5.6-3.62-11.82-4.72-18.38-4.3-6.62.43-12.48,2.74-17.33,7.32-6.83,6.45-9.47,14.66-9.74,23.93.15,3.37.43,6.86,1.46,10.23,3.18,10.35,9.52,17.57,20.31,20.33,3.26.84,6.59.97,9.92.76,11.31-.71,19.5-6.11,24.15-16.5,3.15-7.04,3.81-14.47,2.34-21.99Zm-18.99,17.89c-2.64,5.16-7.87,7.34-13.23,5.59-2.77-.91-4.81-2.74-6.03-5.29-3.48-7.25-3.59-14.64-.06-21.88,1.9-3.89,5.2-5.91,9.66-5.9,4.48,0,7.58,2.17,9.61,5.99,1.76,3.3,2.36,6.9,2.33,10.38.05,4.03-.54,7.71-2.28,11.11Z" />
    <path class="cls-1"
          d="m560.22,134.72c-1.5-9.38-6.99-15.26-16.23-17.33-6.44-1.45-12.89-1.24-19.35-.26-2.88.43-5.71,1.1-8.52,1.88-.69.19-1.41.32-1.21,1.47.72,4.09,1.33,8.19,2.02,12.54,1.11-.33,1.9-.56,2.68-.79,4.99-1.48,10.05-2.3,15.27-1.81,6,.57,9.18,3.79,9.47,9.56.08,1.56.07,1.64-1.43,1.4-2.47-.39-4.96-.64-7.45-.72-6.24-.19-12.29.65-17.84,3.73-4.41,2.45-7.04,6.2-8.04,11.15-.4,1.99-.46,3.97-.33,5.96.52,7.57,4.29,12.77,11.45,15.42,3.38,1.25,6.9,1.85,10.5,2,9.2.39,18.28-.5,27.28-2.39,2.22-.46,2.23-.47,2.23-2.63,0-11.07,0-22.15,0-33.22,0-2-.18-3.98-.5-5.96Zm-17.2,30.98c-3.9.26-7.81.64-11.66-.3-3.27-.79-5.07-2.88-5.22-5.84-.16-3.09,1.02-5.05,3.91-6.25,3.07-1.28,6.33-1.51,9.56-1.16,5.83.63,4.69-.51,4.82,5.23.01.66,0,1.33,0,2,0,1.58-.06,3.16.02,4.74.05,1.09-.46,1.51-1.42,1.58Z" />
  </g>
</svg>
