<?xml version="1.0" encoding="UTF-8"?><svg xmlns="http://www.w3.org/2000/svg" viewBox="0 0 188.82 284.82"><defs><style>.cls-1{fill:#d84177;}.cls-2,.cls-3{fill:#fff;}.cls-4{mix-blend-mode:multiply;opacity:.43;}.cls-4,.cls-5{fill:#88bdeb;}.cls-6{isolation:isolate;}.cls-7{fill:#ea8a6c;}.cls-8{fill:#715154;}.cls-9{fill:#dcefff;}.cls-10{fill:#2c4482;}.cls-11{fill:#ffc2b0;}.cls-12{fill:#715255;}.cls-13{fill:#283d75;}.cls-3{opacity:.46;}.cls-14{fill:#4264bf;}.cls-15{fill:#66223d;}.cls-16{fill:#513554;}.cls-17{fill:#dbefff;}.cls-18{fill:#fcfeff;}</style></defs><g class="cls-6"><g id="Layer_2"><g id="image"><g><ellipse class="cls-4" cx="48.43" cy="264.35" rx="20.48" ry="35.47" transform="translate(-216.18 311.34) rotate(-89.69)"/><ellipse class="cls-4" cx="138.69" cy="235.4" rx="20.48" ry="35.47" transform="translate(-97.46 372.81) rotate(-89.69)"/><path class="cls-10" d="M39.21,248.2l-15.19,3.1-2.04,5.27c-.49,3.78-.46,5.79,2.04,7.78,2.11,1.68,6.41,.38,8.65-.66l9.75-5.87c7.23-3.98,6.69-6.94,5.9-9.37h0c-1.16-2.73-4.5-2.1-9.12-.25Z"/><path class="cls-10" d="M71.46,266.9l-14.68-4.97-4.42,3.53c-2.32,3.02-3.31,4.77-2.15,7.75,.98,2.51,5.34,3.55,7.81,3.78l11.38-.16c8.25,.2,9.27-2.63,9.82-5.13h0c.37-2.94-2.83-4.08-7.76-4.8Z"/><path class="cls-10" d="M112.6,219.77l14.03-6.75,7.32,.25c.44,9.69-.39,8.35-3.56,10.16l-11.91,4.4c-6.11,1.52-7.94,1.49-10.88-.6h0c-1.53-2.48,.88-4.81,5-7.46Z"/><path class="cls-10" d="M152.77,245.77l4.77-14.83,5.22-5.14c7.33,6.36,5.79,6.04,4.92,9.58l-5.01,11.67c-3.11,5.47-4.39,6.78-7.93,7.48h0c-2.86-.6-2.88-3.95-1.97-8.77Z"/><path class="cls-11" d="M19.62,78.69c-8.28,12.55-11.94,28.57-15.21,43.07-.71,3.12-.98,4.99-.15,8.05,2.76,10.19,5.9,19.71,7.09,30.32,.6,5.35,9.07,5.41,8.46,0-1.11-9.86-3-19.58-6.14-29.01-.59-1.78-1.24-3.53-1.91-5.27,.62,1.6-.21,2.78,.11,1.35,.2-.89,.39-1.79,.59-2.68,3.12-13.96,6.5-29.47,14.47-41.55,3.01-4.56-4.32-8.8-7.31-4.27h0Z"/><path class="cls-5" d="M17.23,82.02c-5.6,9.76-9.66,26.26-13.35,39.62-1.4,3.69-.52,7.02,1.82,6.87l7.79,1.08c1.92-.12,5.58-4.28,6.48-7.36l9.89-33.97c1.61-5.53,.42-10.28-2.75-10.99l-.72-.11c-.55-2.03-4.94-2.06-9.16,4.86Z"/><path class="cls-13" d="M43.42,143.89L4.31,166.47c-1.92,1.11-4.31-.28-4.31-2.49v-27.24c0-1.03,.55-1.98,1.44-2.49l39.11-22.58c1.92-1.11,4.31,.28,4.31,2.49v27.24c0,1.03-.55,1.98-1.44,2.49Z"/><path class="cls-2" d="M28.68,136.2c0,3.16-2.23,7-4.98,8.59s-4.98,.32-4.98-2.84,2.23-7,4.98-8.59c2.75-1.59,4.98-.32,4.98,2.84Z"/><path class="cls-11" d="M22.26,161.44l-2.84,1.29c-2.19,.99-4.79,0-5.77-2.18h0c-.99-2.19,0-4.79,2.18-5.78l2.84-1.29c2.19-.99,4.79,0,5.77,2.18h0c.99,2.19,0,4.79-2.18,5.78Z"/><path class="cls-3" d="M55.23,51.29l.06,1.6s.21,4.82-4.54,2.33c-4.75-2.49-4.6-8.51-4.6-8.51,0,0,3.61-.42,9.08,4.58Z"/><path class="cls-16" d="M50.72,55.35c6.19,3.22,5.97-2.41,5.97-2.41l.05,.02-.18-1.91c-6.9-5.93-11.29-5.65-11.29-5.65,0,0-.73,6.73,5.46,9.95Zm-4.32-8.42s3.52-.19,8.81,4.42l.04,1.39s.16,4.18-4.44,1.78c-4.61-2.39-4.41-7.59-4.41-7.59Z"/><polygon class="cls-16" points="59 54.02 55.32 52.34 55.13 50.26 58.8 51.94 59 54.02"/><path class="cls-16" d="M45.56,47.01l-.65-.3c-.36-.16-.68-.66-.72-1.11h0c-.04-.45,.21-.68,.57-.52l.65,.3c.36,.16,.68,.66,.72,1.11h0c.04,.45-.21,.68-.57,.52Z"/><path class="cls-16" d="M69.36,57.86l-.65-.3c-.36-.16-.68-.66-.72-1.11h0c-.04-.45,.21-.68,.57-.52l.65,.3c.36,.16,.68,.66,.72,1.11h0c.04,.45-.21,.68-.57,.52Z"/><g><path class="cls-10" d="M68.83,56.16s-4.85-4.5-11.2-4.61l.18,1.91,.05,.02s.89,5.93,7,8.33c6.11,2.39,3.96-5.65,3.96-5.65Zm-4.22,4.65c-4.55-1.78-5.21-6.19-5.21-6.19l-.23-1.47c4.85,.02,8.73,3.59,8.73,3.59,0,0,1.25,5.85-3.29,4.07Z"/><path class="cls-10" d="M60.25,55.69h0c-.15-.18-.2-.42-.11-.52l1.1-1.21c.09-.1,.3-.04,.45,.14h0c.15,.18,.2,.42,.11,.52l-1.1,1.21c-.09,.1-.29,.04-.45-.14Z"/></g><path class="cls-18" d="M47.09,49.43h0c-.15-.18-.2-.42-.11-.52l1.1-1.21c.09-.1,.3-.04,.45,.14h0c.15,.18,.2,.42,.11,.52l-1.1,1.21c-.09,.1-.29,.04-.45-.14Z"/><path class="cls-14" d="M45.7,174.04c5.63,16.51,6.15,34.27,5.62,51.55-.39,12.88-2.43,25.87-2.11,38.76,.21,8.45,13.37,8.48,13.16,0-.33-13.24,1.78-26.59,2.14-39.83,.49-18.02-.26-36.78-6.12-53.98-2.72-7.97-15.43-4.55-12.69,3.5h0Z"/><path class="cls-14" d="M19.24,159.22c2.95,10.72,4.29,21.78,5.36,32.83,.63,6.53,1.41,12.75,.72,19.26-1.38,13.1-3.82,26.44-3.73,39.63,.06,8.46,13.21,8.48,13.16,0-.09-13.39,2.41-26.92,3.79-40.22,.7-6.7-.24-13.24-.9-19.94-1.16-11.77-2.56-23.64-5.7-35.06-2.24-8.15-14.94-4.69-12.69,3.5h0Z"/><path class="cls-14" d="M30.02,176.61h0c1.21,1.36-4-5.26-2.44-4.32,3.25,1.97,21.52,14.37,25.32,14.44,4.59,.08,1.91-4.36,5.33-7.43,3.24-2.91,4.01-7.64,4.32-11.98,.09-1.2,.15-2.45-.33-3.56-.52-1.19-1.59-2.04-2.63-2.82-8.11-6.14-24.07-21.34-35.41-16.48-13.1,5.62,.02,25.63,5.84,32.15Z"/><path class="cls-17" d="M20.5,79.41c-2.4,3.1-2.12,5.01-2,9.24,.11,4.13,2.91,7.71,6.9,8.83l40.67,11.4s2.34-15.65-5.68-20.35c-4.32-2.54-11.02-6.6-16.29-9.8-7.73-4.71-18.04-6.47-23.59,.68Z"/><path class="cls-11" d="M39.04,78.88l3.44-15.33,9.35,6.29-2.82,13.96c-.27,2.27-10.65,.29-9.98-4.92Z"/><path class="cls-11" d="M44.72,41.2s-9.37-6.53-9.46,9.34c-.06,11.04,6.64,20.6,15.7,24.91,5.64,2.68,12.53-.75,12.84-6.25,1.34-8.02,1.36-15.51-1.27-21.96,.37-6.63-4.19-4.27-12.07-4.7l-5.74-1.34Z"/><path class="cls-8" d="M39.36,71.99s-10.84-4.03-9.81-19.28c1.12-16.51,16.3-15.09,24.73-15.89,3.74-.36,6.33-.9,10.16,2.52,3.48,3.1,.22,10.08-4.77,10.53-1.98,.18-1.07,5.51-1.47,7.34-.71,3.25-2.74,4.84-3.49,8-.71,2.98-5.11,7.66-7.97,7.99-5.09,.59-7.39-1.19-7.39-1.19Z"/><path class="cls-17" d="M18.35,152.92c-2.59-1-1.97-45.5,.36-70.07l45.78,21.78c-.23,20.92-2.87,37.43-.37,62.92l-45.77-14.63Z"/><path class="cls-17" d="M48.85,172.1c-11.31-4.12-22.08-8.64-28.41-16.4-3.11-1.79-2.72-4.96,.87-7.03h0c3.59-2.07,9.07-2.3,12.18-.5l28.41,16.4c3.11,1.79,2.72,4.96-.87,7.03h0c-3.59,2.07-9.07,2.3-12.18,.5Z"/><path class="cls-17" d="M64.49,104.63l-7.54-3.59c-.31,20.39-2.81,36.77-.35,61.81l-.13-.04c.05,1.42-.95,2.92-2.97,4.09h0c-3.59,2.07-9.07,2.3-12.18,.5-5.43-1.98-10.73-4.06-15.48-6.53,6.24,4.78,14.47,8.12,23,11.23,3.11,1.79,8.59,1.57,12.18-.5h0c2.01-1.16,3.02-2.67,2.97-4.09l.13,.04c-2.51-25.49,.14-42,.37-62.92Z"/><path class="cls-10" d="M69.11,58.37l-13.99,1.34c-.5,.05-.94-.32-.99-.82h0c-.05-.5,.32-.94,.82-.99l13.99-1.34c.5-.05,.94,.32,.99,.82h0c.05,.5-.32,.94-.82,.99Z"/><path class="cls-9" d="M55.08,85.37c-10.5-1.58-17.6,5.02-20.1-10.1h0c1.53-.95,3.51-.49,4.53,.99,1.8,2.6,5.64,4.25,9.87,3.73,1.27-.16,2.51,.43,3.2,1.5l2.49,3.88Z"/><path class="cls-11" d="M56.81,99.05c.71,8.75,2.11,16.76,5.77,24.79,2.63,5.77,5.33,14.03,11.03,17.67,12.86,8.21,26.56-12.82,32.63-20.83,3.29-4.34-4.05-8.56-7.31-4.27-3.44,4.53-16.14,24.4-22.69,15.83-6.99-9.15-10.05-22.02-10.96-33.18-.44-5.39-8.91-5.44-8.46,0h0Z"/><path class="cls-2" d="M52.56,98.95c2.56,21.65,9.38,35.41,18.84,42.42,4.97,2.75,9.62-5.09,7.72-9.83-9.42-8.37-12.72-21.43-13.62-36.33-1.23-3.02-4.73-4.66-8.09-3.78h0c-3.5,.91-5.65,4.23-4.86,7.53Z"/><path class="cls-11" d="M120.51,50.63c-.3,12.79-1.99,25.1-6.72,37.09-3.54,8.99-9.74,17.29-14.86,25.39-2.92,4.62,4.4,8.87,7.31,4.27,5.53-8.74,12.09-17.63,15.72-27.42,4.77-12.87,6.7-25.67,7.02-39.34,.13-5.45-8.34-5.45-8.46,0h0Z"/><path class="cls-1" d="M122.41,40.95c-3.73,5.86-4.11,14.9-5.2,23.43-.68,2.3,.86,4.67,3.17,4.87l9.16,3.48c1.91,.17,3.68-3.92,3.98-5.88l3.3-21.62c.54-3.52-1.59-6.88-4.92-7.76h0c-3.47-.93-6.6-.63-9.49,3.49Z"/><path class="cls-15" d="M155.66,48.43l-20.23-5.01,2.93-9.94c6.09-.11,10.38,1.83,15.51,5.31l1.78,9.64Z"/><path class="cls-11" d="M100.51,109.33h1.57c2.93,0,5.31,2.38,5.31,5.31v6.57c0,2.93-2.38,5.31-5.31,5.31h-1.57c-2.93,0-5.31-2.38-5.31-5.31v-6.57c0-2.93,2.38-5.31,5.31-5.31Z" transform="translate(106.53 273.3) rotate(-141.27)"/><path class="cls-2" d="M154.49,119.19c-6.06,18.62-5.21,39.31-3.6,58.57,.75,8.99,1.84,17.95,2.93,26.91,.7,5.73,2.56,16.85,2.5,22.64-.09,8.47,12.17,8.21,12.26-.26,.06-5.78-.9-16.65-1.6-22.38-1.05-8.62-2.1-17.24-2.85-25.89-1.59-18.44-2.77-38.24,3.04-56.09,2.63-8.07-10.07-11.53-12.69-3.5h0Z"/><path class="cls-2" d="M125.74,116.22c-3.03,11.02-4.43,22.45-5.58,33.8-.69,6.84-1.79,13.71-1.11,20.57,1.3,13.11,3.72,26.42,3.63,39.62-.06,8.47,13.1,8.48,13.16,0,.09-13-2.26-26.13-3.57-39.05-.65-6.47,.23-12.78,.86-19.25,1.06-10.83,2.4-21.68,5.3-32.2,2.25-8.17-10.44-11.66-12.69-3.5h0Z"/><path class="cls-2" d="M135.36,137.11h0c1.21,1.36-4-5.26-2.44-4.32,3.25,1.97,21.52,14.37,25.32,14.44,4.59,.08,1.91-4.36,5.33-7.43,3.24-2.91,4.01-7.64,4.32-11.98,.09-1.2,.15-2.45-.33-3.56-.52-1.19-1.59-2.04-2.63-2.82-8.11-6.14-24.07-21.34-35.41-16.48-13.1,5.62,.02,25.63,5.84,32.15Z"/><path class="cls-1" d="M125.83,39.91c-2.4,3.1-2.12,5.01-2,9.24,.11,4.13,2.91,7.71,6.9,8.83l40.67,11.4s2.34-15.65-5.68-20.35c-4.32-2.54-11.02-6.6-16.29-9.8-7.73-4.71-18.04-6.47-23.59,.68Z"/><path class="cls-1" d="M123.69,113.42c1.21,1.56,2.74-42.31,.36-70.07l45.78,21.78c-.23,20.92-2.87,37.43-.37,62.92l-45.77-14.63Z"/><path class="cls-1" d="M154.18,132.6c-11.31-4.12-22.08-8.64-28.41-16.4-3.11-1.79-2.72-4.96,.87-7.03h0c3.59-2.07,9.07-2.3,12.18-.5l28.41,16.4c3.11,1.79,2.72,4.96-.87,7.03h0c-3.59,2.07-9.07,2.3-12.18,.5Z"/><path class="cls-2" d="M145.15,45.21s-4.98-.02-5.91-8.69l-3.32-.46c-.46,.36-1.42,.12-1.86,3.02-.27,1.73-.15,3.49,.28,5.18l1.23,4.94c.28,1.11,1.63,1.61,2.57,.95l7.02-4.94Z"/><path class="cls-11" d="M163.08,60.64c5.13,11.57,17.8,19.39,17.28,32.93-.54,14.18-9.65,21.96-18.81,31.49-3.78,3.93,2.2,9.92,5.99,5.99,10.22-10.62,19.77-19.43,21.13-34.95,.64-7.31-.57-14.04-4.71-20.17-4.53-6.71-10.22-12.02-13.57-19.55-2.2-4.97-9.5-.67-7.31,4.27h0Z"/><path class="cls-1" d="M157.18,58.54l11.08,19.77c4.46,4.89,15.75-4.79,12.47-9.12l-12.28-18.06c-2.11-2.76-5.97-3.47-8.93-1.65h0c-3.08,1.9-4.11,5.9-2.34,9.06Z"/><path class="cls-8" d="M49.34,66.56c-.52,.38-1.68,11.42,7.6,9.63,9.28-1.79,7.41-11.07,7.41-11.07,0,0-7.37,1.92-9.41-7.22s-5.6,8.66-5.6,8.66Z"/><path class="cls-11" d="M57.26,62c.22,2.61-1.11,4.86-2.98,5.02-.2,.02-.41,0-.61-.02-1.62-.26-2.99-2.09-3.19-4.41-.22-2.61,1.11-4.86,2.98-5.02,1.87-.16,3.57,1.83,3.79,4.44Z"/><path class="cls-11" d="M141.46,42.33l-4.66-17.18,11.81,3.27,3.79,14.03c.82,2.28-7.52,8.64-10.94-.12Z"/><rect class="cls-11" x="127.61" y="3.12" width="22.14" height="35.84" rx="9.39" ry="9.39" transform="translate(-.63 4.64) rotate(-1.91)"/><path class="cls-12" d="M138.53,16.63c-3.05,1.05-6.49,1.42-9.62,.21-4.22-1.63-7.2-7.55-3.89-10.63,1.79-1.67,6.38-3.17,10.19-4.72,10.82-4.39,22.54,1.15,22.95,13.5,0,0,1.81,15.27-6.72,18.73-.68,.28-1.46,.09-2-.41l-.06-.06c-.6-.57-.76-1.45-.42-2.21,.78-1.78,1.5-5.22-2.77-7.8-.89-.54-1.34-1.53-1.52-2.71-.44-2.92-3.33-4.85-6.13-3.89Z"/><path class="cls-11" d="M151.92,29.56c-1.5,1.25-3.22,.82-3.84-.96-.62-1.78,.1-4.24,1.6-5.49,1.5-1.25,3.22-.82,3.84,.96,.62,1.78-.1,4.24-1.6,5.49Z"/><path class="cls-7" d="M140.39,38.91s4.84-2.48,4.86-2.52c0,0-1.65,3.52-4.06,4.9l-.8-2.37Z"/><path class="cls-2" d="M142.59,44.81s5.68,1.95,11.29-6.01l3.69,4.59c.33,.7,.37,.79-.21,1.41l-7.45,8.08c-.87,.95-2.49,.84-3.05-.21l-4.27-7.86Z"/></g></g></g></g></svg>