<?xml version="1.0" encoding="UTF-8"?><svg id="Layer_2" xmlns="http://www.w3.org/2000/svg" viewBox="0 0 190.03 91.94"><defs><style>.cls-1{fill:#fbbc04;}.cls-2{fill:#4285f4;}.cls-3{fill:#089d57;}.cls-4{fill:#ea4335;}</style></defs><g id="Artwork"><g><path class="cls-4" d="M45.24,46.15l30.86-17.82c7.26-4.19,9.75-13.48,5.56-20.74-4.19-7.26-13.48-9.75-20.74-5.56L7.59,32.82l37.65,13.33Z"/><path class="cls-2" d="M68.49,91.94c5.25,0,10.35-2.72,13.16-7.59,4.19-7.26,1.7-16.55-5.56-20.74L22.78,32.82c-7.26-4.2-16.55-1.7-20.74,5.56-4.19,7.26-1.7,16.55,5.56,20.74l53.32,30.79c2.39,1.38,5,2.04,7.58,2.04Z"/><path class="cls-1" d="M121.54,91.94c2.58,0,5.19-.66,7.58-2.04l53.32-30.79-37.17-13.61-31.34,18.09c-7.26,4.19-9.75,13.48-5.56,20.74,2.81,4.87,7.92,7.59,13.16,7.59Z"/><path class="cls-3" d="M174.83,61.16c5.25,0,10.35-2.72,13.16-7.59,4.19-7.26,1.7-16.55-5.56-20.74L129.11,2.04c-7.26-4.19-16.55-1.71-20.74,5.56-4.19,7.26-1.7,16.55,5.56,20.74l53.32,30.79c2.39,1.38,5,2.04,7.58,2.04Z"/></g></g></svg>